#!OML:ASF H:\Terrain\Patient Classification 1\Terrain2\Thursday\justin.ASF
:FULLY-SPECIFIED
:DEGREES
2580
root 18.0014 20.4588 -11.382 -453.925 263.204 93.3537
lowerback 6.55438 1.10191 6.03679
upperback 2.75553 1.73099 3.74867
thorax -0.754402 0.819867 0.363839
lowerneck -11.457 -1.09641 -9.98703
upperneck 41.4336 -2.909 4.61747
head 17.3279 -2.82426 3.20798
rclavicle 1.75924e-014 -1.74931e-014
rhumerus -30.3068 -1.68831 -84.8376
rradius 30.0829
rwrist -12.5906
rhand -21.1619 10.1648
rfingers 7.12502
rthumb 5.21802 -19.751
lclavicle 1.75924e-014 -1.74931e-014
lhumerus -33.3402 7.73805 84.4347
lradius 28.734
lwrist 0.497371
lhand -15.4779 19.4501
lfingers 7.12502
lthumb 10.7038 49.1574
rfemur 1.72046 -3.35658 32.5607
rtibia 22.7046
rfoot -20.1345 2.02524
rtoes 19.2783
lfemur -27.0343 3.37367 -8.89129
ltibia 63.7769
lfoot -3.00546 -12.9612
ltoes 10.2969
2581
root 17.9576 20.4578 -11.3964 -452.48 262.91 91.8637
lowerback 6.59198 1.15093 6.20068
upperback 2.81443 1.79793 3.93435
thorax -0.711407 0.85071 0.460527
lowerneck -11.6042 -1.08687 -9.9964
upperneck 41.4867 -2.82494 4.5049
head 17.3866 -2.80512 3.17378
rclavicle -1.98785e-016 3.18055e-015
rhumerus -30.2474 -1.42904 -84.7413
rradius 30.0507
rwrist -12.7046
rhand -21.515 10.1646
rfingers 7.12502
rthumb 4.87706 -19.7593
lclavicle -1.98785e-016 3.18055e-015
lhumerus -33.4963 8.29474 84.3841
lradius 28.9582
lwrist 0.531199
lhand -16.3881 18.8801
lfingers 7.12502
lthumb 9.82571 48.6309
rfemur 2.14175 -3.28143 32.9466
rtibia 22.2663
rfoot -20.0139 2.01374
rtoes 18.1333
lfemur -27.7128 3.78874 -8.54578
ltibia 64.536
lfoot -3.25078 -12.4299
ltoes 7.11541
2582
root 17.9107 20.4644 -11.4096 -451.432 262.712 90.7273
lowerback 6.71576 1.27231 6.51103
upperback 2.82261 1.9863 3.90167
thorax -0.751372 0.944846 0.239643
lowerneck -11.5858 -1.164 -9.81487
upperneck 41.4358 -2.99024 4.5034
head 17.3662 -2.8393 3.11079
rclavicle 9.93923e-016 1.03368e-014
rhumerus -30.2594 -2.09976 -84.5855
rradius 29.9587
rwrist -12.2805
rhand -21.4117 10.2353
rfingers 7.12502
rthumb 4.97682 -19.6863
lclavicle 9.93923e-016 1.03368e-014
lhumerus -33.6952 7.33623 84.5297
lradius 29.3783
lwrist 1.67236
lhand -19.559 17.8434
lfingers 7.12502
lthumb 6.76556 47.7153
rfemur 2.69641 -2.767 33.2685
rtibia 21.8365
rfoot -19.8627 1.95006
rtoes 19.4976
lfemur -28.2486 4.0431 -8.31681
ltibia 65.0897
lfoot -3.32766 -11.7955
ltoes 7.54316
2583
root 17.8618 20.4746 -11.4213 -450.363 262.782 89.6279
lowerback 6.72563 1.29751 6.48478
upperback 2.80987 2.02074 3.88626
thorax -0.769139 0.961721 0.235432
lowerneck -11.4651 -1.12258 -9.9915
upperneck 41.4279 -2.91472 4.5577
head 17.3273 -2.83227 3.18052
rclavicle -8.05078e-015 -1.11319e-014
rhumerus -30.4043 -1.89332 -84.5858
rradius 30.0281
rwrist -12.2614
rhand -21.3882 10.1798
rfingers 7.12502
rthumb 4.99952 -19.7412
lclavicle -8.05078e-015 -1.11319e-014
lhumerus -33.8432 6.71677 84.6234
lradius 29.6038
lwrist 2.7495
lhand -18.6545 21.206
lfingers 7.12502
lthumb 7.63863 51.048
rfemur 3.18299 -2.39888 33.2642
rtibia 21.3882
rfoot -19.7124 1.9259
rtoes 20.6396
lfemur -28.7329 4.18738 -8.42744
ltibia 65.4749
lfoot -3.37598 -11.0437
ltoes 10.2945
2584
root 17.8137 20.4724 -11.4297 -449.83 262.866 89.1654
lowerback 6.53165 1.17954 6.35909
upperback 2.8445 1.83416 3.97479
thorax -0.640664 0.869944 0.414077
lowerneck -11.4065 -0.870223 -10.3032
upperneck 41.4393 -2.4588 4.60142
head 17.2729 -2.6932 3.33568
rclavicle 1.68967e-015 -9.54166e-015
rhumerus -30.3023 -1.452 -84.5586
rradius 29.9034
rwrist -12.016
rhand -21.72 10.3035
rfingers 7.12502
rthumb 4.67915 -19.6249
lclavicle 1.68967e-015 -9.54166e-015
lhumerus -33.8637 7.73668 84.3756
lradius 29.4695
lwrist 2.52722
lhand -18.9963 22.5595
lfingers 7.12502
lthumb 7.30871 52.4132
rfemur 3.39404 -2.63253 33.1699
rtibia 21.0387
rfoot -19.736 1.8642
rtoes 18.8671
lfemur -29.3743 4.47287 -8.66638
ltibia 65.765
lfoot -4.13651 -10.4306
ltoes 8.74712
2585
root 17.7677 20.4611 -11.4336 -449.598 262.831 88.9091
lowerback 6.52204 1.19188 6.53885
upperback 2.88052 1.85639 3.9151
thorax -0.58839 0.884168 0.252291
lowerneck -11.0518 -0.543177 -9.95444
upperneck 41.101 -2.07909 4.66735
head 16.932 -2.45531 3.35808
rclavicle 1.46107e-014 1.59028e-014
rhumerus -30.1697 -1.94217 -84.4285
rradius 29.6715
rwrist -11.4088
rhand -21.4338 10.5823
rfingers 7.12502
rthumb 4.9555 -19.3397
lclavicle 1.46107e-014 1.59028e-014
lhumerus -33.9507 9.20359 83.9357
lradius 29.3166
lwrist 1.27533
lhand -19.1605 22.1262
lfingers 7.12502
lthumb 7.15026 51.9854
rfemur 3.66632 -2.84583 33.1957
rtibia 20.8036
rfoot -19.8533 1.75342
rtoes 17.1535
lfemur -29.9593 4.97248 -8.80092
ltibia 65.9271
lfoot -4.97919 -10.1528
ltoes 6.04767
2586
root 17.7195 20.4543 -11.4414 -449.134 262.888 88.3423
lowerback 6.67726 1.2847 6.57643
upperback 2.89612 1.99621 3.83196
thorax -0.648118 0.953979 0.132957
lowerneck -11.2963 -0.818184 -9.81118
upperneck 41.3567 -2.4539 4.43433
head 17.1805 -2.62947 3.16844
rclavicle 1.48095e-014 3.65764e-014
rhumerus -30.1615 -2.53518 -84.2538
rradius 29.5443
rwrist -10.9155
rhand -20.9783 10.728
rfingers 7.12502
rthumb 5.3953 -19.1834
lclavicle 1.48095e-014 3.65764e-014
lhumerus -34.1861 8.87357 83.7701
lradius 29.5424
lwrist 1.73409
lhand -18.9724 21.6514
lfingers 7.12502
lthumb 7.33183 51.5044
rfemur 4.04114 -3.0318 33.1458
rtibia 20.5923
rfoot -19.8963 1.61779
rtoes 15.7316
lfemur -30.3669 5.37528 -8.96282
ltibia 65.9256
lfoot -5.25166 -9.71818
ltoes 5.63761
2587
root 17.6663 20.4594 -11.4562 -448.997 263.326 88.2091
lowerback 6.65118 1.28734 6.07084
upperback 2.89778 1.97258 3.76913
thorax -0.65085 0.941904 0.349936
lowerneck -11.1028 -0.650264 -9.96767
upperneck 41.1855 -2.23347 4.64007
head 17.0118 -2.52845 3.32462
rclavicle -1.76918e-014 -2.3059e-014
rhumerus -30.1714 -2.37604 -84.2164
rradius 29.5034
rwrist -10.9588
rhand -21.1144 10.4419
rfingers 7.12502
rthumb 5.26387 -19.4727
lclavicle -1.76918e-014 -2.3059e-014
lhumerus -34.3824 8.88864 83.6501
lradius 29.5906
lwrist 2.16368
lhand -19.3428 21.4308
lfingers 7.12502
lthumb 6.97429 51.2959
rfemur 4.33054 -3.2289 32.7092
rtibia 20.3495
rfoot -19.8905 1.59639
rtoes 14.852
lfemur -30.7696 5.39347 -9.52179
ltibia 65.7187
lfoot -5.27117 -8.94414
ltoes 6.77929
2588
root 17.6127 20.4631 -11.4669 -449.518 263.677 88.7655
lowerback 6.55435 1.25666 5.73967
upperback 2.90833 1.90745 3.69511
thorax -0.598769 0.911183 0.463746
lowerneck -11.2496 -0.751784 -10.0761
upperneck 41.3828 -2.32832 4.53999
head 17.1764 -2.60924 3.28697
rclavicle -1.10325e-014 -2.54444e-014
rhumerus -30.1995 -2.0914 -84.2658
rradius 29.5754
rwrist -11.3231
rhand -21.4058 9.95301
rfingers 7.12502
rthumb 4.98251 -19.9684
lclavicle -1.10325e-014 -2.54444e-014
lhumerus -34.4362 8.94127 83.5265
lradius 29.4731
lwrist 2.43832
lhand -19.7125 21.0129
lfingers 7.12502
lthumb 6.61732 50.8895
rfemur 4.66129 -3.18587 32.3614
rtibia 20.0532
rfoot -19.8626 1.79529
rtoes 15.8306
lfemur -31.1922 5.31714 -10.0529
ltibia 65.3527
lfoot -5.30112 -8.40957
ltoes 8.47561
2589
root 17.5617 20.4527 -11.472 -450.473 263.532 89.7286
lowerback 6.5493 1.2584 6.11261
upperback 2.92338 1.92866 3.61352
thorax -0.562601 0.925733 0.171921
lowerneck -11.286 -0.660005 -9.7182
upperneck 41.4305 -2.23312 4.41459
head 17.191 -2.53071 3.18228
rclavicle 1.00386e-014 1.59028e-014
rhumerus -30.2227 -2.37758 -84.305
rradius 29.6602
rwrist -11.336
rhand -21.5646 9.81407
rfingers 7.12502
rthumb 4.82923 -20.1109
lclavicle 1.00386e-014 1.59028e-014
lhumerus -34.497 8.80232 83.3687
lradius 29.4101
lwrist 2.47071
lhand -19.7895 20.4585
lfingers 7.12502
lthumb 6.54305 50.3374
rfemur 5.06544 -3.16462 32.5267
rtibia 19.6922
rfoot -19.8896 2.02235
rtoes 16.997
lfemur -31.658 5.4932 -10.0795
ltibia 64.9315
lfoot -5.27664 -8.11027
ltoes 9.40936
2590
root 17.5107 20.4443 -11.4829 -450.842 263.389 90.1753
lowerback 6.50799 1.25751 6.4299
upperback 2.90727 1.94309 3.53846
thorax -0.54088 0.936346 -0.0812908
lowerneck -11.2801 -0.52057 -9.43249
upperneck 41.3337 -2.05011 4.34887
head 17.1054 -2.41081 3.12986
rclavicle 8.74653e-015 -2.14687e-014
rhumerus -30.2215 -2.59108 -84.3655
rradius 29.6331
rwrist -11.0533
rhand -21.5676 9.72197
rfingers 7.12502
rthumb 4.82626 -20.2031
lclavicle 8.74653e-015 -2.14687e-014
lhumerus -34.6496 8.67524 83.2249
lradius 29.4346
lwrist 2.60794
lhand -19.4491 20.4977
lfingers 7.12502
lthumb 6.87166 50.3661
rfemur 5.40185 -3.1659 32.7356
rtibia 19.28
rfoot -19.9124 1.97529
rtoes 16.7315
lfemur -32.1648 5.64491 -10.0593
ltibia 64.4337
lfoot -5.17121 -7.52741
ltoes 8.71689
